<svg width="25" height="25" viewBox="0 0 25 25" fill="none" xmlns="http://www.w3.org/2000/svg">
<path d="M17.4016 3.93872C17.6643 3.67607 17.9761 3.46773 18.3192 3.32559C18.6624 3.18345 19.0302 3.11029 19.4016 3.11029C19.773 3.11029 20.1408 3.18345 20.484 3.32559C20.8272 3.46773 21.139 3.67607 21.4016 3.93872C21.6643 4.20136 21.8726 4.51316 22.0147 4.85633C22.1569 5.19949 22.23 5.56728 22.23 5.93872C22.23 6.31015 22.1569 6.67795 22.0147 7.02111C21.8726 7.36427 21.6643 7.67607 21.4016 7.93872L7.90161 21.4387L2.40161 22.9387L3.90161 17.4387L17.4016 3.93872Z" stroke="white" stroke-width="2" stroke-linecap="round" stroke-linejoin="round"/>
</svg>
